<?xml version="1.0" encoding="UTF-8"?>
<svg version="1.1" xmlns="http://www.w3.org/2000/svg" width="1254" height="1254">
<path d="M0 0 C413.82 0 827.64 0 1254 0 C1254 413.82 1254 827.64 1254 1254 C840.18 1254 426.36 1254 0 1254 C0 840.18 0 426.36 0 0 Z " fill="#060E1F" transform="translate(0,0)"/>
<path d="M0 0 C2.37713041 -0.00389613 4.75425849 -0.00953907 7.13138109 -0.0167709 C12.96115943 -0.02995764 18.79071296 -0.02464416 24.62048628 -0.01137793 C31.60911216 0.00347655 38.5976618 -0.00501384 45.58629055 -0.01415812 C59.27792636 -0.03132299 72.96948194 -0.02582638 86.66111606 -0.01080093 C98.64368844 0.0022638 110.62623303 0.00744432 122.60881233 0.00488091 C123.80222791 0.00464028 123.80222791 0.00464028 125.01975289 0.0043948 C128.24961009 0.00373118 131.47946728 0.00302876 134.70932447 0.00226946 C164.99344346 -0.00475088 195.27751354 0.01072399 225.56162008 0.03689292 C252.45040226 0.06000485 279.33913066 0.06539657 306.22792053 0.05516052 C313.11334957 0.05255838 319.99877861 0.04997333 326.88420773 0.0475626 C327.7319608 0.04726515 328.57971387 0.0469677 329.45315643 0.04666124 C351.939508 0.03904114 374.42585519 0.04546326 396.9122048 0.05625862 C399.33267752 0.05740639 401.75315025 0.05854957 404.17362297 0.05968544 C405.77921188 0.06044069 407.38480079 0.06120634 408.99038969 0.06198245 C420.96292696 0.06763399 432.93545029 0.0663154 444.90798759 0.06175423 C458.52606792 0.05663981 472.1440962 0.06252857 485.76216357 0.08264852 C492.70865149 0.09264838 499.65506237 0.09802467 506.60155487 0.08975601 C512.96420382 0.08268513 519.32668231 0.08953705 525.68930883 0.10735964 C527.98726664 0.11139499 530.28524005 0.11041967 532.58319198 0.10384078 C554.61744845 0.04617212 573.07789809 2.57564698 589.65052795 18.28562927 C603.36295966 31.95324911 607.62045262 46.92081363 607.97621155 65.81370544 C607.99612233 84.0121638 599.05797707 99.35729605 587.24964905 112.59104919 C585.12529207 114.98175304 583.15130468 117.38913089 581.22621155 119.93870544 C577.72666061 124.51245907 573.97113362 128.84837376 570.2091217 133.20579529 C566.37364375 137.65399234 562.63735587 142.17327919 558.9332428 146.73167419 C554.11682216 152.60919955 549.16876855 158.37732459 544.24769592 164.16722107 C538.7610064 170.62527471 533.32594026 177.1161816 527.97621155 183.68870544 C524.94003789 187.38134908 521.84521184 191.02242333 518.74964905 194.66526794 C515.85126332 198.08180084 512.99216054 201.52625382 510.16371155 205.00120544 C506.87547341 209.04104088 503.53636393 213.03200971 500.16371155 217.00120544 C496.11240222 221.77171095 492.11821995 226.58346478 488.16371155 231.43479919 C480.16378249 241.24721218 472.12670605 251.01911418 463.85853577 260.60716248 C459.36360991 265.82732007 455.00076158 271.14926984 450.66371155 276.50120544 C443.63426556 285.15185699 436.46599636 293.67451725 429.24769592 302.16722107 C423.7610064 308.62527471 418.32594026 315.1161816 412.97621155 321.68870544 C410.4022461 324.81920396 407.78794252 327.91286178 405.16371155 331.00120544 C400.25825311 336.77663088 395.4434249 342.62112643 390.66371155 348.50120544 C383.63282226 357.15071673 376.46602493 365.67448363 369.24769592 374.16722107 C364.50967493 379.74406183 359.78528366 385.32703328 355.16371155 391.00120544 C351.91149077 394.99414554 348.61788713 398.9475209 345.28871155 402.87620544 C344.83012756 403.41801453 344.37154358 403.95982361 343.89906311 404.51805115 C341.53256615 407.31020379 339.15598396 410.09303409 336.76527405 412.86448669 C326.68526267 423.43142668 326.68526267 423.43142668 321.03871155 436.31370544 C321.69979795 439.68524609 322.58210233 441.77910109 324.66371155 444.50120544 C326.95087581 445.64478758 328.21178501 445.62703078 330.75333118 445.6286974 C331.61462849 445.63170504 332.4759258 445.63471269 333.36332303 445.63781148 C334.31515098 445.63606111 335.26697893 445.63431074 336.24765015 445.63250732 C337.75787783 445.6356809 337.75787783 445.6356809 339.29861516 445.63891858 C342.69416909 445.64494103 346.0896861 445.64391683 349.48524475 445.64305115 C351.9108944 445.64608114 354.33654349 445.64960215 356.76219177 445.65357971 C361.99670722 445.66148115 367.23121825 445.66663884 372.4657383 445.66987038 C380.73830852 445.67536263 389.01083741 445.69225575 397.28338623 445.71121216 C400.11249631 445.71756919 402.94160649 445.72387758 405.77071667 445.73018932 C406.4777843 445.73177309 407.18485193 445.73335685 407.91334585 445.7349886 C415.96546673 445.75293212 424.01759054 445.76915507 432.06971741 445.78416443 C432.8059567 445.7855403 433.54219599 445.78691617 434.30074557 445.78833374 C446.23121317 445.81026293 458.16167017 445.82101954 470.09215436 445.82853518 C482.33597387 445.83660383 494.5797023 445.85988643 506.82346982 445.89648885 C514.3781688 445.91852637 521.93268058 445.92817472 529.48741009 445.92198851 C535.27623024 445.91844122 541.064843 445.9356628 546.85360336 445.96066666 C549.23001676 445.96760337 551.60646134 445.96767854 553.98287392 445.96046638 C557.22188761 445.95162759 560.45989067 445.96719209 563.69882202 445.98895264 C564.6439578 445.9805101 565.58909359 445.97206756 566.56286985 445.96336919 C570.79558083 446.0161168 573.06106996 446.12567202 576.72401714 448.40822124 C579.7834712 451.70945725 580.19675309 454.36700044 580.12464905 458.88792419 C578.60467719 467.50539177 570.7859441 475.07082538 565.5348053 481.78245544 C562.15609025 486.12362126 558.91429489 490.56377611 555.66371155 495.00120544 C550.95574585 501.42030051 546.17772269 507.76653873 541.2926178 514.05198669 C538.60778208 517.54048954 536.0281856 521.10334046 533.44032288 524.66404724 C522.12115211 540.20255048 511.47723392 553.03191403 492.66371155 559.50120544 C491.99679926 559.74889571 491.32988697 559.99658597 490.64276522 560.251782 C483.38213094 562.7314149 476.6195755 562.92558238 468.99606323 562.8888855 C467.6328097 562.89306531 466.26955966 562.89854636 464.90631598 562.90520531 C461.18387754 562.91959452 457.46166173 562.91543575 453.73921144 562.9080385 C449.71518364 562.90329272 445.69120304 562.91582928 441.66719055 562.92605591 C433.79207794 562.94322322 425.91704519 562.94408801 418.04191873 562.938843 C411.63686183 562.93479528 405.23182847 562.93625202 398.82677269 562.94159126 C397.45733445 562.9427139 397.45733445 562.9427139 396.06023079 562.94385921 C394.20528509 562.94539076 392.3503394 562.9469291 390.49539372 562.94847418 C373.11165277 562.9621924 355.72795687 562.95676688 338.34421697 562.94528896 C322.46345256 562.93536307 306.58280477 562.94828732 290.70205835 562.97222316 C274.37410804 562.99664646 258.04621198 563.00621373 241.71824378 562.99957043 C232.56008145 562.99608464 223.40200871 562.99826756 214.24386024 563.01582146 C206.44548811 563.03058414 198.64726862 563.03112627 190.84889934 563.01375055 C186.87532814 563.00527042 182.90202913 563.00301702 178.92847252 563.0184021 C175.28072596 563.0323499 171.6334822 563.02735861 167.98576399 563.00816286 C166.06270511 563.00268554 164.13961996 563.01658998 162.21661121 563.03151697 C144.33944695 562.88241245 128.80683213 556.72430758 115.66371155 544.50120544 C104.27349376 532.65702971 98.21652099 518.3674402 98.37269592 502.07200623 C98.7894156 484.19550396 106.36693412 470.52170531 118.0113678 457.47776794 C120.30835619 454.89999893 122.47300709 452.28037392 124.60121155 449.56370544 C128.35523199 444.82300201 132.28931232 440.25232993 136.23939514 435.67552185 C139.79574943 431.54385844 143.2290254 427.33348459 146.60902405 423.05589294 C149.515704 419.44188403 152.52379652 415.91723551 155.5294342 412.38548279 C158.42687159 408.97632138 161.28123202 405.53759327 164.10121155 402.06370544 C167.57443821 397.79375295 171.13176975 393.60628776 174.72621155 389.43870544 C178.79268827 384.72220184 182.7475756 379.94278828 186.60902405 375.05589294 C189.515704 371.44188403 192.52379652 367.91723551 195.5294342 364.38548279 C198.42687159 360.97632138 201.28123202 357.53759327 204.10121155 354.06370544 C208.05814573 349.2007112 212.12807096 344.44420341 216.21986389 339.6950531 C220.01534521 335.28088778 223.71649068 330.79787346 227.3863678 326.27854919 C230.40791099 322.59361401 233.49407106 318.96552223 236.58021545 315.33470154 C239.45928998 311.94147069 242.29582647 308.51843825 245.10121155 305.06370544 C248.57443821 300.79375295 252.13176975 296.60628776 255.72621155 292.43870544 C259.79933902 287.71448797 263.75954236 282.92631985 267.6285553 278.03245544 C269.96600023 275.12523028 272.37063945 272.27874042 274.78871155 269.43870544 C279.133263 264.33552082 283.41204363 259.18200367 287.66371155 254.00120544 C292.33985269 248.30428372 297.05676719 242.6467625 301.8316803 237.03245544 C305.39421943 232.83751291 308.8771119 228.58188501 312.35121155 224.31370544 C315.38738521 220.62106181 318.48221125 216.97998756 321.57777405 213.33714294 C324.47615978 209.92061005 327.33526255 206.47615707 330.16371155 203.00120544 C333.912238 198.39587294 337.73455401 193.859161 341.57997131 189.33494568 C344.45916474 185.94166435 347.29575392 182.51852759 350.10121155 179.06370544 C353.50845926 174.87297296 357.00457564 170.77188254 360.53871155 166.68870544 C365.10301161 161.41132418 369.44948653 156.0015335 373.71864319 150.48387146 C376.50908681 146.90137387 379.40955007 143.48004592 382.47621155 140.12620544 C390.04528159 132.70001641 390.04528159 132.70001641 393.10121155 123.06370544 C393.05798025 119.69025947 393.05798025 119.69025947 391.66371155 118.50120544 C389.53847881 118.39550882 387.40967616 118.36151601 385.28182983 118.35403442 C384.60733911 118.35035774 383.93284839 118.34668105 383.23791856 118.34289294 C380.96097809 118.3318146 378.68408319 118.32800525 376.40711975 118.32420349 C374.78125868 118.31794185 373.15539905 118.31129532 371.52954102 118.30429077 C367.09959158 118.28685034 362.66965296 118.27632024 358.23967767 118.26808524 C355.47320062 118.26294039 352.70672696 118.25686436 349.9402523 118.25057411 C341.2883476 118.23151156 332.63645148 118.21728401 323.98452979 118.20896214 C313.99088022 118.19919182 303.99745227 118.17288214 294.0038808 118.13246125 C286.28493285 118.10231028 278.56604844 118.08749414 270.84704274 118.08418113 C266.23461192 118.081829 261.62241757 118.0728479 257.01004982 118.04771996 C252.66881911 118.0244527 248.32798075 118.0202005 243.98670387 118.03048134 C242.39439083 118.03097718 240.80205857 118.02464245 239.20980453 118.01092529 C237.03290378 117.99322309 234.85741351 118.00030265 232.68051147 118.01345825 C230.85454422 118.00987572 230.85454422 118.00987572 228.99168873 118.00622082 C224.96464245 118.60518105 222.81512577 119.96521252 219.66371155 122.50120544 C215.79150821 128.68412255 216.25480651 135.04085733 216.3106842 142.1625824 C216.30736822 144.10085097 216.30404762 146.03911953 216.30055404 147.97738779 C216.29958786 150.05041819 216.30589067 152.12331606 216.31415176 154.19632912 C216.33058576 158.53056201 216.32201231 162.86452854 216.30931091 167.19876099 C216.27926477 178.74307994 216.28061833 190.2873499 216.29956377 201.83168811 C216.31192803 209.42180356 216.30994897 217.01161502 216.28117597 224.60169572 C216.2660158 228.9019197 216.27331444 233.20131407 216.29788613 237.50148547 C216.31040247 240.81831658 216.2903467 244.13482654 216.27552795 247.4516449 C216.28886673 248.62964157 216.30220551 249.80763824 216.31594849 251.02133179 C216.20817829 261.90349539 212.26900616 269.40493613 205.03871155 277.31370544 C203.97701073 278.51378155 202.91582453 279.71431311 201.8551178 280.91526794 C201.32289612 281.51113708 200.79067444 282.10700623 200.24232483 282.72093201 C197.77402982 285.50453968 195.37397993 288.34435642 192.97621155 291.18870544 C192.52093079 291.72672791 192.06565002 292.26475037 191.59657288 292.81907654 C188.77124812 296.1642529 185.9881969 299.54086735 183.22621155 302.93870544 C179.26862967 307.8024957 175.19828708 312.56001776 171.10536194 317.30955505 C168.07425866 320.83419463 165.09385838 324.39160427 162.16371155 328.00120544 C158.73163142 332.22913024 155.21819984 336.37648435 151.66371155 340.50120544 C147.34079011 345.51850673 143.10700634 350.59614495 138.92933655 355.73558044 C133.59855903 362.24280541 128.12757545 368.63467155 122.64808655 375.01683044 C121.89386414 375.8956488 121.89386414 375.8956488 121.12440491 376.79222107 C120.11418702 377.96711143 119.10199779 379.14030981 118.08778381 380.31175232 C115.62433683 383.16657307 113.21486234 386.04436472 110.8941803 389.01683044 C110.45404602 389.57233582 110.01391174 390.12784119 109.56044006 390.70018005 C108.36692152 392.21447532 107.19046811 393.74217672 106.01527405 395.27073669 C103.17723142 397.96263427 101.55525877 398.51693946 97.66371155 398.50120544 C95.54198929 396.94201749 94.76029954 396.03690909 94.2893067 393.42465281 C94.28971123 392.21542938 94.28971123 392.21542938 94.29012394 390.98177719 C94.28313419 390.05005432 94.27614445 389.11833145 94.26894289 388.15837455 C94.27651895 387.13300472 94.284095 386.10763488 94.29190063 385.05119324 C94.28807607 383.96326044 94.28425151 382.87532765 94.28031105 381.75442719 C94.27098722 378.09013885 94.28304216 374.42622451 94.29481506 370.76194763 C94.29234849 368.14235273 94.28851154 365.52275881 94.28340149 362.90316772 C94.27423561 357.25230517 94.27558099 351.60152378 94.2835865 345.95066071 C94.29480744 337.77279891 94.28578623 329.59505301 94.2710247 321.41720131 C94.24723835 308.13970338 94.23388525 294.86221974 94.22987366 281.58470154 C94.22962879 280.78974007 94.22938392 279.99477861 94.22913163 279.1757274 C94.22658663 270.30983422 94.22601839 261.44394215 94.22706604 252.57804871 C94.22739905 249.36509705 94.22768445 246.15214539 94.22792053 242.93919373 C94.22798332 242.1464119 94.22804611 241.35363007 94.2281108 240.53682455 C94.22871576 227.31438956 94.21382765 214.09202046 94.18708748 200.86961293 C94.17128182 192.71369764 94.16902489 184.55799508 94.1842215 176.40207753 C94.19480788 170.15040507 94.18499337 163.89891844 94.16766357 157.64726448 C94.16393114 155.0830116 94.16706319 152.51873823 94.1775341 149.95450401 C94.19086986 146.45574189 94.17972375 142.95787795 94.1625061 139.45915222 C94.17231288 138.44270528 94.18211966 137.42625833 94.19222361 136.37900996 C94.12968784 130.24008167 93.48927567 126.40206004 89.66371155 121.50120544 C85.41900653 118.6315253 82.03947993 118.12784837 76.97753906 118.13612366 C76.33073907 118.13300466 75.68393908 118.12988566 75.01753908 118.12667215 C72.86411981 118.11976343 70.71137444 118.13402464 68.55799866 118.1481781 C67.00859447 118.14734678 65.4591905 118.14512897 63.90979004 118.14163208 C60.58019693 118.13669114 57.25078023 118.14076246 53.92120171 118.15164566 C48.65590035 118.16802493 43.39081959 118.15953291 38.1255188 118.14680481 C24.10200628 118.11670318 10.07853407 118.11816387 -3.94499439 118.13705766 C-13.16430964 118.14938629 -22.38337472 118.1475471 -31.60266107 118.11866987 C-36.83668331 118.10342749 -42.07002671 118.11092942 -47.3040067 118.13538003 C-50.55914806 118.14544575 -53.81397739 118.13476596 -57.06908226 118.11826515 C-58.57795877 118.11481169 -60.08688293 118.11991849 -61.5956955 118.13423347 C-63.65697073 118.15257923 -65.71589015 118.14018484 -67.77709961 118.12025452 C-68.92984406 118.12138559 -70.08258852 118.12251667 -71.27026463 118.12368202 C-75.27368431 117.31089154 -76.76201096 115.59422349 -79.33628845 112.50120544 C-81.01688909 109.14000416 -80.52116846 105.34343864 -80.53941345 101.64573669 C-80.54511353 100.75190781 -80.5508136 99.85807892 -80.5566864 98.93716431 C-80.5661523 97.03477667 -80.57267667 95.13237251 -80.57652283 93.22996521 C-80.58609928 90.37019803 -80.617051 87.51119041 -80.64878845 84.65159607 C-80.78113701 62.11113531 -76.11382211 38.63157247 -60.3245697 21.35276794 C-53.24220859 14.75740612 -45.42256244 8.03167177 -36.33628845 4.50120544 C-35.54169627 4.16791621 -34.74710409 3.83462697 -33.92843336 3.49123806 C-22.81891866 -0.58404826 -11.68337783 -0.05300694 0 0 Z " fill="#3870EB" transform="translate(366.33628845214844,338.49879455566406)"/>
<path d="M0 0 C2.37713041 -0.00389613 4.75425849 -0.00953907 7.13138109 -0.0167709 C12.96115943 -0.02995764 18.79071296 -0.02464416 24.62048628 -0.01137793 C31.60911216 0.00347655 38.5976618 -0.00501384 45.58629055 -0.01415812 C59.27792636 -0.03132299 72.96948194 -0.02582638 86.66111606 -0.01080093 C98.64368844 0.0022638 110.62623303 0.00744432 122.60881233 0.00488091 C123.80222791 0.00464028 123.80222791 0.00464028 125.01975289 0.0043948 C128.24961009 0.00373118 131.47946728 0.00302876 134.70932447 0.00226946 C164.99344346 -0.00475088 195.27751354 0.01072399 225.56162008 0.03689292 C252.45040226 0.06000485 279.33913066 0.06539657 306.22792053 0.05516052 C313.11334957 0.05255838 319.99877861 0.04997333 326.88420773 0.0475626 C327.7319608 0.04726515 328.57971387 0.0469677 329.45315643 0.04666124 C351.939508 0.03904114 374.42585519 0.04546326 396.9122048 0.05625862 C399.33267752 0.05740639 401.75315025 0.05854957 404.17362297 0.05968544 C405.77921188 0.06044069 407.38480079 0.06120634 408.99038969 0.06198245 C420.96292696 0.06763399 432.93545029 0.0663154 444.90798759 0.06175423 C458.52606792 0.05663981 472.1440962 0.06252857 485.76216357 0.08264852 C492.70865149 0.09264838 499.65506237 0.09802467 506.60155487 0.08975601 C512.96420382 0.08268513 519.32668231 0.08953705 525.68930883 0.10735964 C527.98726664 0.11139499 530.28524005 0.11041967 532.58319198 0.10384078 C554.61744845 0.04617212 573.07789809 2.57564698 589.65052795 18.28562927 C603.36295966 31.95324911 607.62045262 46.92081363 607.97621155 65.81370544 C607.9963378 84.20910229 598.87225796 99.66945916 586.8863678 112.98948669 C584.66672615 115.28032229 584.66672615 115.28032229 583.66371155 117.50120544 C582.90847273 117.50180253 582.15323392 117.50239962 581.37510908 117.5030148 C536.63297964 117.53889346 491.89091776 117.59550887 447.14885076 117.6791264 C441.77896739 117.68914409 436.40908372 117.69898818 431.03919983 117.70872498 C429.43560049 117.71163704 429.43560049 117.71163704 427.79960521 117.71460792 C410.47983733 117.7456456 393.16008271 117.76261351 375.84029226 117.77439967 C358.07417044 117.78680207 340.30811831 117.81428285 322.54204047 117.85581851 C311.57567907 117.88098 300.6094332 117.89432079 289.64304252 117.89263502 C282.12728528 117.89260531 274.61164589 117.90719584 267.09593455 117.93336973 C262.75699666 117.94804587 258.41830045 117.95619288 254.07934189 117.94700813 C250.10783415 117.93874329 246.13681279 117.94881472 242.16537733 117.97354206 C240.72787495 117.97924292 239.29032672 117.97818362 237.85283796 117.96971789 C227.86935079 117.65484318 227.86935079 117.65484318 219.66371155 122.50120544 C215.79150821 128.68412255 216.25480651 135.04085733 216.3106842 142.1625824 C216.30736822 144.10085097 216.30404762 146.03911953 216.30055404 147.97738779 C216.29958786 150.05041819 216.30589067 152.12331606 216.31415176 154.19632912 C216.33058576 158.53056201 216.32201231 162.86452854 216.30931091 167.19876099 C216.27926477 178.74307994 216.28061833 190.2873499 216.29956377 201.83168811 C216.31192803 209.42180356 216.30994897 217.01161502 216.28117597 224.60169572 C216.2660158 228.9019197 216.27331444 233.20131407 216.29788613 237.50148547 C216.31040247 240.81831658 216.2903467 244.13482654 216.27552795 247.4516449 C216.28886673 248.62964157 216.30220551 249.80763824 216.31594849 251.02133179 C216.20817829 261.90349539 212.26900616 269.40493613 205.03871155 277.31370544 C203.97701073 278.51378155 202.91582453 279.71431311 201.8551178 280.91526794 C201.32289612 281.51113708 200.79067444 282.10700623 200.24232483 282.72093201 C197.77402982 285.50453968 195.37397993 288.34435642 192.97621155 291.18870544 C192.52093079 291.72672791 192.06565002 292.26475037 191.59657288 292.81907654 C188.77124812 296.1642529 185.9881969 299.54086735 183.22621155 302.93870544 C179.26862967 307.8024957 175.19828708 312.56001776 171.10536194 317.30955505 C168.07425866 320.83419463 165.09385838 324.39160427 162.16371155 328.00120544 C158.73163142 332.22913024 155.21819984 336.37648435 151.66371155 340.50120544 C147.34079011 345.51850673 143.10700634 350.59614495 138.92933655 355.73558044 C133.59855903 362.24280541 128.12757545 368.63467155 122.64808655 375.01683044 C121.89386414 375.8956488 121.89386414 375.8956488 121.12440491 376.79222107 C120.11418702 377.96711143 119.10199779 379.14030981 118.08778381 380.31175232 C115.62433683 383.16657307 113.21486234 386.04436472 110.8941803 389.01683044 C110.45404602 389.57233582 110.01391174 390.12784119 109.56044006 390.70018005 C108.36692152 392.21447532 107.19046811 393.74217672 106.01527405 395.27073669 C103.17723142 397.96263427 101.55525877 398.51693946 97.66371155 398.50120544 C95.54198929 396.94201749 94.76029954 396.03690909 94.2893067 393.42465281 C94.28971123 392.21542938 94.28971123 392.21542938 94.29012394 390.98177719 C94.28313419 390.05005432 94.27614445 389.11833145 94.26894289 388.15837455 C94.27651895 387.13300472 94.284095 386.10763488 94.29190063 385.05119324 C94.28807607 383.96326044 94.28425151 382.87532765 94.28031105 381.75442719 C94.27098722 378.09013885 94.28304216 374.42622451 94.29481506 370.76194763 C94.29234849 368.14235273 94.28851154 365.52275881 94.28340149 362.90316772 C94.27423561 357.25230517 94.27558099 351.60152378 94.2835865 345.95066071 C94.29480744 337.77279891 94.28578623 329.59505301 94.2710247 321.41720131 C94.24723835 308.13970338 94.23388525 294.86221974 94.22987366 281.58470154 C94.22962879 280.78974007 94.22938392 279.99477861 94.22913163 279.1757274 C94.22658663 270.30983422 94.22601839 261.44394215 94.22706604 252.57804871 C94.22739905 249.36509705 94.22768445 246.15214539 94.22792053 242.93919373 C94.22798332 242.1464119 94.22804611 241.35363007 94.2281108 240.53682455 C94.22871576 227.31438956 94.21382765 214.09202046 94.18708748 200.86961293 C94.17128182 192.71369764 94.16902489 184.55799508 94.1842215 176.40207753 C94.19480788 170.15040507 94.18499337 163.89891844 94.16766357 157.64726448 C94.16393114 155.0830116 94.16706319 152.51873823 94.1775341 149.95450401 C94.19086986 146.45574189 94.17972375 142.95787795 94.1625061 139.45915222 C94.17231288 138.44270528 94.18211966 137.42625833 94.19222361 136.37900996 C94.12968784 130.24008167 93.48927567 126.40206004 89.66371155 121.50120544 C85.41900653 118.6315253 82.03947993 118.12784837 76.97753906 118.13612366 C76.33073907 118.13300466 75.68393908 118.12988566 75.01753908 118.12667215 C72.86411981 118.11976343 70.71137444 118.13402464 68.55799866 118.1481781 C67.00859447 118.14734678 65.4591905 118.14512897 63.90979004 118.14163208 C60.58019693 118.13669114 57.25078023 118.14076246 53.92120171 118.15164566 C48.65590035 118.16802493 43.39081959 118.15953291 38.1255188 118.14680481 C24.10200628 118.11670318 10.07853407 118.11816387 -3.94499439 118.13705766 C-13.16430964 118.14938629 -22.38337472 118.1475471 -31.60266107 118.11866987 C-36.83668331 118.10342749 -42.07002671 118.11092942 -47.3040067 118.13538003 C-50.55914806 118.14544575 -53.81397739 118.13476596 -57.06908226 118.11826515 C-58.57795877 118.11481169 -60.08688293 118.11991849 -61.5956955 118.13423347 C-63.65697073 118.15257923 -65.71589015 118.14018484 -67.77709961 118.12025452 C-68.92984406 118.12138559 -70.08258852 118.12251667 -71.27026463 118.12368202 C-75.27368431 117.31089154 -76.76201096 115.59422349 -79.33628845 112.50120544 C-81.01688909 109.14000416 -80.52116846 105.34343864 -80.53941345 101.64573669 C-80.54511353 100.75190781 -80.5508136 99.85807892 -80.5566864 98.93716431 C-80.5661523 97.03477667 -80.57267667 95.13237251 -80.57652283 93.22996521 C-80.58609928 90.37019803 -80.617051 87.51119041 -80.64878845 84.65159607 C-80.78113701 62.11113531 -76.11382211 38.63157247 -60.3245697 21.35276794 C-53.24220859 14.75740612 -45.42256244 8.03167177 -36.33628845 4.50120544 C-35.54169627 4.16791621 -34.74710409 3.83462697 -33.92843336 3.49123806 C-22.81891866 -0.58404826 -11.68337783 -0.05300694 0 0 Z " fill="#FDFCFC" transform="translate(366.33628845214844,338.49879455566406)"/>
<path d="M0 0 C0.33 0 0.66 0 1 0 C1 71.94 1 143.88 1 218 C-70.94 218 -142.88 218 -217 218 C-217 217.67 -217 217.34 -217 217 C-216.40388916 216.94054199 -215.80777832 216.88108398 -215.19360352 216.81982422 C-171.28601437 212.28068649 -130.36141262 197.68036863 -95 171 C-93.83204801 170.13278992 -92.66407909 169.26560266 -91.49609375 168.3984375 C-86.21012053 164.43786458 -81.14288343 160.43407859 -76.58984375 155.625 C-74.89646162 153.89417208 -73.10645535 152.36639422 -71.25 150.8125 C-54.24226562 135.98357671 -41.0563775 116.50727354 -30 97 C-29.35272949 95.86594727 -29.35272949 95.86594727 -28.69238281 94.70898438 C-22.28275383 83.36188578 -17.22743713 71.76569231 -12.88623047 59.484375 C-12.06981099 57.19570154 -11.21503103 54.92597664 -10.34765625 52.65625 C-4.14219509 35.91061628 -1.30580967 17.76215798 0 0 Z " fill="#000000" transform="translate(1253,1036)"/>
<path d="M0 0 C0.33 0 0.66 0 1 0 C1.06469482 0.58152832 1.12938965 1.16305664 1.19604492 1.76220703 C7.87649617 60.37814924 34.24270515 120.02931089 81 158 C82.17242148 158.98372406 83.34423341 159.9681748 84.515625 160.953125 C122.3129102 192.48973916 167.88897456 211.66804004 217 216 C217 216.33 217 216.66 217 217 C145.39 217 73.78 217 0 217 C0 145.39 0 73.78 0 0 Z " fill="#000000" transform="translate(0,1037)"/>
<path d="M0 0 C71.28 0 142.56 0 216 0 C216 0.33 216 0.66 216 1 C215.41210693 1.07516846 214.82421387 1.15033691 214.21850586 1.2277832 C162.12880546 7.9478879 117.36976762 26.99583161 78 62 C77.44570312 62.48581543 76.89140625 62.97163086 76.3203125 63.47216797 C67.73542602 71.01165308 60.14633858 79.08765278 53 88 C52.5064502 88.61327148 52.01290039 89.22654297 51.50439453 89.85839844 C25.12495286 122.97648694 5.70564312 165.23673592 1.875 207.625 C1.78863281 208.53378906 1.70226562 209.44257813 1.61328125 210.37890625 C1.40423098 212.58554799 1.19986295 214.79251054 1 217 C0.67 217 0.34 217 0 217 C0 145.39 0 73.78 0 0 Z " fill="#000000" transform="translate(0,0)"/>
<path d="M0 0 C71.61 0 143.22 0 217 0 C217 71.61 217 143.22 217 217 C216.67 217 216.34 217 216 217 C215.93530518 216.35264893 215.87061035 215.70529785 215.80395508 215.03833008 C213.01770762 187.91486878 207.15342082 162.54870077 195 138 C194.44054688 136.80890625 193.88109375 135.6178125 193.3046875 134.390625 C183.93792416 114.69158189 171.99027668 96.41316065 157.19140625 80.37890625 C155.75941156 78.82438795 154.34928107 77.24936262 152.96484375 75.65234375 C113.98908975 30.84843962 58.10474347 7.03999412 0 1 C0 0.67 0 0.34 0 0 Z " fill="#000000" transform="translate(1037,0)"/>
<path d="M0 0 C63.03 0 126.06 0 191 0 C188.43047547 3.85428679 186.35494845 6.8899196 183.3125 10.1875 C179.44966755 14.45241167 175.81211906 18.86809109 172.1875 23.3359375 C169.20782305 26.96475836 166.12353009 30.49481671 163 34 C162.34 33.34 161.68 32.68 161 32 C162.375 30.5 162.375 30.5 164 29 C164.66 29 165.32 29 166 29 C166.33 27.68 166.66 26.36 167 25 C167.66 25 168.32 25 169 25 C169 24.34 169 23.68 169 23 C169.66 22.67 170.32 22.34 171 22 C171.309375 21.360625 171.61875 20.72125 171.9375 20.0625 C173 18 173 18 176 16 C176.33 15.01 176.66 14.02 177 13 C177.66 13 178.32 13 179 13 C179 12.34 179 11.68 179 11 C179.66 11 180.32 11 181 11 C181.28875 10.195625 181.5775 9.39125 181.875 8.5625 C183 6 183 6 185 5 C184.67 4.01 184.34 3.02 184 2 C124.93 2 65.86 2 5 2 C3.83830958 5.9595774 3.83830958 5.9595774 4 10 C2.91821289 11.85717773 2.91821289 11.85717773 1.41015625 13.74609375 C0.86117676 14.44202637 0.31219727 15.13795898 -0.25341797 15.85498047 C-1.11797607 16.91676514 -1.11797607 16.91676514 -2 18 C-2.53898926 18.67047363 -3.07797852 19.34094727 -3.63330078 20.03173828 C-5.81657328 22.73073408 -8.02404402 25.40942532 -10.23242188 28.08789062 C-12.79843003 31.22006428 -15.28354831 34.35427933 -17.58984375 37.68359375 C-19.76870184 40.79543086 -22.2765971 43.34554401 -25 46 C-26.52260099 47.81460666 -28.02277457 49.64826672 -29.5 51.5 C-32.48303932 55.2393028 -35.61679374 58.6223309 -39 62 C-39.92711195 63.18450422 -40.82636296 64.39169963 -41.6875 65.625 C-45.09056792 70.29308269 -48.99439306 74.4603501 -52.92578125 78.6796875 C-55.01640168 80.81389508 -55.01640168 80.81389508 -56 83 C-56.66 83 -57.32 83 -58 83 C-58.10183594 83.59554687 -58.20367188 84.19109375 -58.30859375 84.8046875 C-59.12175503 87.38658942 -60.07150689 88.31995385 -62.0625 90.125 C-65.64093794 93.5513181 -68.64623495 97.23412885 -71.69921875 101.12890625 C-74.39067761 104.48751789 -77.18546339 107.74452663 -80 111 C-84.1508076 115.80544999 -88.17436333 120.68306952 -92.109375 125.66796875 C-95.26956717 129.56597438 -98.62696133 133.28606913 -102 137 C-102.66 136.67 -103.32 136.34 -104 136 C-102.74896484 134.56720703 -102.74896484 134.56720703 -101.47265625 133.10546875 C-95.62786969 126.39607911 -89.84391474 119.65714017 -84.2421875 112.7421875 C-81.69746405 109.62999959 -79.10385619 106.56270126 -76.5 103.5 C-73.14547904 99.55353876 -69.82778038 95.58357765 -66.5625 91.5625 C-63.08927334 87.29254751 -59.5319418 83.10508232 -55.9375 78.9375 C-51.86863814 74.21823 -47.91262467 69.43497169 -44.046875 64.546875 C-39.34650146 58.69831861 -34.42851965 53.02518928 -29.56347656 47.31347656 C-24.32061433 41.15445547 -19.13754943 34.96424814 -14.1171875 28.62109375 C-11.04155907 24.81344306 -7.86567395 21.09250218 -4.6796875 17.37695312 C0.15400353 11.71681205 1.34734508 9.29424661 1 2 C0.505 1.01 0.505 1.01 0 0 Z " fill="#7645D5" transform="translate(758,456)"/>
<path d="M0 0 C30.9990268 -0.09122722 61.99801815 -0.16202669 92.9971473 -0.20426132 C96.65589465 -0.20926422 100.31464173 -0.2144415 103.97338867 -0.21972656 C104.70178712 -0.2207758 105.43018558 -0.22182505 106.18065671 -0.22290608 C117.97873102 -0.24031693 129.77672747 -0.27185833 141.57475557 -0.30861118 C153.67833768 -0.34600176 165.78187897 -0.36823185 177.88551646 -0.37635398 C185.35567533 -0.38184569 192.82561411 -0.39919792 200.29570524 -0.43166587 C206.02134075 -0.45528583 211.74683487 -0.4578246 217.47250938 -0.45243073 C219.82314409 -0.45353352 222.17378693 -0.46152121 224.5243721 -0.4768219 C227.72840548 -0.49665948 230.93148947 -0.49196135 234.13554382 -0.48101807 C235.070371 -0.49266943 236.00519818 -0.5043208 236.96835345 -0.51632524 C241.18159449 -0.47730335 243.40711075 -0.36983667 247.05402851 1.90506363 C250.1201992 5.20595089 250.53311 7.8615029 250.4609375 12.38671875 C248.94096564 21.00418632 241.12223255 28.56961994 235.87109375 35.28125 C232.49236959 39.62242754 229.25092809 44.06280988 226 48.5 C221.78663906 54.23629691 217.56471221 59.96435518 213.25 65.625 C212.47140625 66.64851562 211.6928125 67.67203125 210.890625 68.7265625 C209 71 209 71 207 72 C208.70144607 68.26955674 210.97633879 64.97671559 213.3125 61.625 C213.69083984 61.07328125 214.06917969 60.5215625 214.45898438 59.953125 C216.43481141 57.10472461 218.47980444 54.378332 220.71875 51.73046875 C222.6073625 49.46995481 223.74425487 47.60808603 225 45 C225.66 44.67 226.32 44.34 227 44 C227.33 43.01 227.66 42.02 228 41 C228.66 41 229.32 41 230 41 C230.37125 40.195625 230.37125 40.195625 230.75 39.375 C232.29665225 36.43636073 234.1451936 33.75229337 236 31 C236.33 30.34 236.66 29.68 237 29 C237.66 29 238.32 29 239 29 C239.2475 28.0925 239.495 27.185 239.75 26.25 C241.06050513 22.84268666 242.4287784 21.48827897 245 19 C245.7872678 16.8618034 245.7872678 16.8618034 246 15 C246.66 15 247.32 15 248 15 C247.93967927 13.5613506 247.85079867 12.12388098 247.75 10.6875 C247.70359375 9.88699219 247.6571875 9.08648438 247.609375 8.26171875 C247.16665518 5.93974693 247.16665518 5.93974693 245.54341412 4.38076973 C241.67239142 2.27926729 238.03371119 2.60018936 233.69599915 2.64596558 C232.74338029 2.64410787 231.79076143 2.64225016 230.80927533 2.64033616 C227.60875339 2.63773102 224.40871516 2.65659962 221.20825195 2.67529297 C218.91687624 2.67777567 216.62549876 2.67892343 214.3341217 2.67883301 C209.39479313 2.68154175 204.45561142 2.69378539 199.51632118 2.71337509 C191.70457968 2.74435403 183.89289466 2.75466707 176.08110046 2.76223755 C165.12638079 2.77509118 154.17172429 2.79770656 143.21704102 2.82861328 C131.95630527 2.86034271 120.69557387 2.88868953 109.43481445 2.91064453 C108.39558829 2.91267489 108.39558829 2.91267489 107.33536766 2.91474627 C99.76514407 2.92939939 92.19491902 2.94263774 84.62469006 2.95417976 C83.95846437 2.95519815 83.29223869 2.95621653 82.60582435 2.95726577 C79.2831586 2.96232026 75.96049273 2.96726221 72.63782662 2.97207749 C64.87452303 2.98390134 57.11126739 3.00208553 49.34799063 3.02559257 C44.51290958 3.03944364 39.67782574 3.04928139 34.84273338 3.05822754 C32.60343833 3.06328661 30.36414644 3.07010515 28.12486267 3.07883072 C25.06287164 3.09056762 22.00092855 3.09604276 18.93891907 3.10006714 C18.05738122 3.10502634 17.17584337 3.10998554 16.26759225 3.11509502 C10.76915852 3.1141619 5.45564681 2.69446492 0 2 C0 1.34 0 0.68 0 0 Z " fill="#1186E3" transform="translate(696,785)"/>
<path d="M0 0 C0.99 0.99 0.99 0.99 2 2 C1.23816406 2.88300781 0.47632813 3.76601563 -0.30859375 4.67578125 C-5.86298797 11.12683277 -11.35598361 17.61378813 -16.72265625 24.22265625 C-19.28204217 27.34396567 -21.88601545 30.42443239 -24.5 33.5 C-29.4055617 39.27539636 -34.21834339 45.12147593 -39 51 C-41.24555565 53.74630673 -43.49279329 56.49121133 -45.7421875 59.234375 C-47.27615324 61.11335033 -48.80192871 62.99903576 -50.3203125 64.890625 C-53.6002582 68.95998137 -56.80830583 72.92184922 -60.625 76.5 C-66.54379922 82.22564494 -70.52707533 89.20559186 -73 97 C-73.66462758 98.37598678 -74.33128318 99.7509959 -75 101.125 C-79.55879177 112.53924758 -80.4663226 125.82469718 -76.23828125 137.37109375 C-75.02450667 140.06502293 -75.02450667 140.06502293 -73.35546875 142.72265625 C-72 145 -72 145 -72 147 C-72.99 146.67 -73.98 146.34 -75 146 C-76.3515625 143.19921875 -76.3515625 143.19921875 -77.625 139.6875 C-78.05039062 138.53636719 -78.47578125 137.38523437 -78.9140625 136.19921875 C-83.57774407 122.45981154 -81.74187838 106.3583229 -75.48632812 93.41723633 C-71.74776993 86.15018249 -67.07849221 80.05486073 -61.65234375 73.9765625 C-59.35535535 71.39879349 -57.19070446 68.77916848 -55.0625 66.0625 C-51.30847956 61.32179656 -47.37439923 56.75112448 -43.42431641 52.17431641 C-39.86796212 48.04265299 -36.43468615 43.83227915 -33.0546875 39.5546875 C-30.14865173 35.94147953 -27.14104418 32.41778263 -24.13647461 28.88647461 C-21.21982939 25.45409036 -18.34299312 21.9939826 -15.5 18.5 C-10.42066278 12.25914465 -5.21311192 6.12906056 0 0 Z " fill="#0F7FDD" transform="translate(546,722)"/>
<path d="M0 0 C31.02 0 62.04 0 94 0 C91.43047547 3.85428679 89.35494845 6.8899196 86.3125 10.1875 C82.44966755 14.45241167 78.81211906 18.86809109 75.1875 23.3359375 C72.20782305 26.96475836 69.12353009 30.49481671 66 34 C65.34 33.34 64.68 32.68 64 32 C65.375 30.5 65.375 30.5 67 29 C67.66 29 68.32 29 69 29 C69.33 27.68 69.66 26.36 70 25 C70.66 25 71.32 25 72 25 C72 24.34 72 23.68 72 23 C72.99 22.505 72.99 22.505 74 22 C74.4640625 21.0409375 74.4640625 21.0409375 74.9375 20.0625 C76 18 76 18 79 16 C79.33 15.01 79.66 14.02 80 13 C80.66 13 81.32 13 82 13 C82 12.34 82 11.68 82 11 C82.66 11 83.32 11 84 11 C84.28875 10.195625 84.5775 9.39125 84.875 8.5625 C86 6 86 6 88 5 C87.505 3.515 87.505 3.515 87 2 C58.62 2 30.24 2 1 2 C0.67 1.34 0.34 0.68 0 0 Z " fill="#8C3ED8" transform="translate(855,456)"/>
<path d="M0 0 C0.99 0.99 0.99 0.99 2 2 C-1.39476464 6.70134073 -4.84021964 10.9416777 -9 15 C-13.71729815 20.14719971 -18.05430353 25.55414055 -22.30078125 31.09375 C-22.86152344 31.7228125 -23.42226563 32.351875 -24 33 C-24.66 33 -25.32 33 -26 33 C-26.15275391 33.89332031 -26.15275391 33.89332031 -26.30859375 34.8046875 C-27.12175503 37.38658942 -28.07150689 38.31995385 -30.0625 40.125 C-33.64093794 43.5513181 -36.64623495 47.23412885 -39.69921875 51.12890625 C-42.39067761 54.48751789 -45.18546339 57.74452663 -48 61 C-52.1508076 65.80544999 -56.17436333 70.68306952 -60.109375 75.66796875 C-63.26956717 79.56597438 -66.62696133 83.28606913 -70 87 C-70.66 86.67 -71.32 86.34 -72 86 C-71.16597656 85.04480469 -70.33195313 84.08960938 -69.47265625 83.10546875 C-63.62786969 76.39607911 -57.84391474 69.65714017 -52.2421875 62.7421875 C-49.69746405 59.62999959 -47.10385619 56.56270126 -44.5 53.5 C-41.14547904 49.55353876 -37.82778038 45.58357765 -34.5625 41.5625 C-31.08927179 37.29254561 -27.5318985 33.10512137 -23.9375 28.9375 C-19.86367223 24.21155411 -15.89186974 19.42799967 -12.0234375 14.53125 C-8.09769229 9.62027916 -4.03944566 4.81753561 0 0 Z " fill="#624AD0" transform="translate(726,506)"/>
<path d="M0 0 C3.65316671 1.24976756 4.78065836 1.67098753 7 5 C7.97878371 9.15766533 7.60401747 12.71816229 5.78515625 16.578125 C1.92451962 22.79147902 -2.62573454 28.52561798 -7.12890625 34.28125 C-10.50763041 38.62242754 -13.74907191 43.06280988 -17 47.5 C-21.21336094 53.23629691 -25.43528779 58.96435518 -29.75 64.625 C-30.52859375 65.64851562 -31.3071875 66.67203125 -32.109375 67.7265625 C-34 70 -34 70 -36 71 C-34.29855393 67.26955674 -32.02366121 63.97671559 -29.6875 60.625 C-29.11999023 59.79742188 -29.11999023 59.79742188 -28.54101562 58.953125 C-26.56518859 56.10472461 -24.52019556 53.378332 -22.28125 50.73046875 C-20.3926375 48.46995481 -19.25574513 46.60808603 -18 44 C-17.01 43.505 -17.01 43.505 -16 43 C-15.67 42.01 -15.34 41.02 -15 40 C-14.34 40 -13.68 40 -13 40 C-12.7525 39.46375 -12.505 38.9275 -12.25 38.375 C-10.70334775 35.43636073 -8.8548064 32.75229337 -7 30 C-6.67 29.34 -6.34 28.68 -6 28 C-5.34 28 -4.68 28 -4 28 C-3.7525 27.0925 -3.505 26.185 -3.25 25.25 C-1.93949487 21.84268666 -0.5712216 20.48827897 2 18 C2.7872678 15.8618034 2.7872678 15.8618034 3 14 C3.66 14 4.32 14 5 14 C4.99088808 7.91706791 4.99088808 7.91706791 1.9375 3.0625 C1.298125 2.711875 0.65875 2.36125 0 2 C0 1.34 0 0.68 0 0 Z " fill="#0792E8" transform="translate(939,786)"/>
<path d="M0 0 C0.66 0.66 1.32 1.32 2 2 C1.23816406 2.88300781 0.47632813 3.76601563 -0.30859375 4.67578125 C-5.9438871 11.22111628 -11.50916691 17.80611344 -16.953125 24.51171875 C-19.88802184 28.07952273 -22.92671669 31.55120297 -26 35 C-26.99 34.67 -27.98 34.34 -29 34 C-28.45472656 33.40574219 -27.90945313 32.81148437 -27.34765625 32.19921875 C-22.5366548 26.91122912 -17.91547168 21.51714466 -13.41796875 15.9609375 C-9.02132454 10.57700161 -4.50341455 5.29466869 0 0 Z " fill="#1C77E0" transform="translate(546,722)"/>
<path d="M0 0 C-4.61913733 10.07015721 -15.50982762 16.45941509 -25.47265625 20.359375 C-27.54921361 21.04248564 -29.63590854 21.69608325 -31.734375 22.30859375 C-33.94627544 22.78963465 -33.94627544 22.78963465 -35 24 C-36.99958364 24.04080783 -39.00045254 24.04254356 -41 24 C-41 23.34 -41 22.68 -41 22 C-39.02 22 -37.04 22 -35 22 C-35 21.34 -35 20.68 -35 20 C-29.72 18.68 -24.44 17.36 -19 16 C-19 15.34 -19 14.68 -19 14 C-17.6696875 13.443125 -17.6696875 13.443125 -16.3125 12.875 C-12.5250676 10.73117034 -10.66298292 8.41408067 -8 5 C-3.43478261 0 -3.43478261 0 0 0 Z " fill="#0998EE" transform="translate(889,876)"/>
<path d="M0 0 C2.375 0.25 2.375 0.25 5 1 C6.125 2.875 6.125 2.875 7 5 C9.26330393 7.80218582 11.63088927 8.81625839 15 10 C15 10.66 15 11.32 15 12 C16.546875 12.433125 16.546875 12.433125 18.125 12.875 C20.35959479 13.51154792 22.54926295 14.18724873 24.75 14.9375 C29.45006283 16.474059 34.22334279 17.72509149 39 19 C39 19.66 39 20.32 39 21 C24.54535996 20.64822779 12.14886381 13.38490783 1.625 3.84765625 C0 2 0 2 0 0 Z " fill="#0693EC" transform="translate(480,879)"/>
<path d="M0 0 C0.495 1.485 0.495 1.485 1 3 C-0.63467701 5.20527182 -2.28058168 7.16845058 -4.125 9.1875 C-5.23901634 10.44350858 -6.35091858 11.70139475 -7.4609375 12.9609375 C-8.04327148 13.61932617 -8.62560547 14.27771484 -9.22558594 14.95605469 C-12.1583914 18.33434959 -14.9501546 21.8239314 -17.75 25.3125 C-22.34777907 31.01789791 -27.03863474 36.6039532 -32 42 C-32.66 41.67 -33.32 41.34 -34 41 C-33.16597656 40.04480469 -32.33195313 39.08960938 -31.47265625 38.10546875 C-25.63822939 31.40797129 -19.86083603 24.68370067 -14.2734375 17.77734375 C-11.08554324 13.88285437 -7.81915029 10.05608888 -4.54052734 6.23779297 C-2.00519709 3.30159508 -2.00519709 3.30159508 0 0 Z " fill="#584FCC" transform="translate(688,551)"/>
<path d="M0 0 C0.66 0 1.32 0 2 0 C0.34173043 3.94553795 -2.34688899 6.93444708 -5.125 10.125 C-8.62281501 14.19142533 -12.05742633 18.28338919 -15.375 22.5 C-18.07255906 25.90802729 -20.83025663 29.02836559 -24 32 C-22.61953181 26.51139154 -20.07631988 23.33272319 -16.375 19.25 C-15.29031906 18.02202236 -14.20699181 16.79284772 -13.125 15.5625 C-12.59390625 14.96179688 -12.0628125 14.36109375 -11.515625 13.7421875 C-8.73785563 10.54918457 -6.13552423 7.21910683 -3.5234375 3.890625 C-2 2 -2 2 0 0 Z " fill="#1A7DE5" transform="translate(517,757)"/>
<path d="M0 0 C0.33 0 0.66 0 1 0 C1.33 1.65 1.66 3.3 2 5 C2.66 4.67 3.32 4.34 4 4 C4.05425013 6.87525669 4.09379277 9.74947646 4.125 12.625 C4.14175781 13.43324219 4.15851562 14.24148438 4.17578125 15.07421875 C4.21420986 19.80093815 3.82737094 23.55387702 2 28 C1.34 28 0.68 28 0 28 C0 18.76 0 9.52 0 0 Z " fill="#383E4C" transform="translate(973,388)"/>
<path d="M0 0 C0.33 0 0.66 0 1 0 C1.02578125 0.93199219 1.0515625 1.86398437 1.078125 2.82421875 C1.56491614 13.76595606 3.23298075 23.47617964 9 33 C9 33.66 9 34.32 9 35 C8.01 34.67 7.02 34.34 6 34 C4.6484375 31.19921875 4.6484375 31.19921875 3.375 27.6875 C2.94960938 26.53636719 2.52421875 25.38523437 2.0859375 24.19921875 C0.7627165 20.30095258 -0.12889275 17.01384269 -0.09765625 12.890625 C-0.09443359 12.13652344 -0.09121094 11.38242187 -0.08789062 10.60546875 C-0.07951172 9.82816406 -0.07113281 9.05085937 -0.0625 8.25 C-0.05798828 7.45722656 -0.05347656 6.66445313 -0.04882812 5.84765625 C-0.03708565 3.89840492 -0.01915146 1.94919262 0 0 Z " fill="#0979C8" transform="translate(465,834)"/>
<path d="M0 0 C0.99 0.33 1.98 0.66 3 1 C2.6376123 1.41773682 2.27522461 1.83547363 1.90185547 2.26586914 C0.22602694 4.19789735 -1.44948785 6.13019741 -3.125 8.0625 C-3.69476562 8.71927734 -4.26453125 9.37605469 -4.8515625 10.05273438 C-8.58245987 14.35598532 -12.29719113 18.67255316 -16 23 C-16.66 22.34 -17.32 21.68 -18 21 C-16.625 19.5 -16.625 19.5 -15 18 C-14.34 18 -13.68 18 -13 18 C-12.67 16.68 -12.34 15.36 -12 14 C-11.34 14 -10.68 14 -10 14 C-10 13.34 -10 12.68 -10 12 C-9.34 11.67 -8.68 11.34 -8 11 C-7.690625 10.360625 -7.38125 9.72125 -7.0625 9.0625 C-6 7 -6 7 -3 5 C-2.67 4.01 -2.34 3.02 -2 2 C-1.34 2 -0.68 2 0 2 C0 1.34 0 0.68 0 0 Z " fill="#833BCC" transform="translate(937,467)"/>
<path d="M0 0 C0.66 0.66 1.32 1.32 2 2 C0.09422661 4.32228675 -1.82354536 6.63247462 -3.75 8.9375 C-4.28882813 9.59685547 -4.82765625 10.25621094 -5.3828125 10.93554688 C-5.91132812 11.56396484 -6.43984375 12.19238281 -6.984375 12.83984375 C-7.46616211 13.42113037 -7.94794922 14.00241699 -8.44433594 14.60131836 C-10.2559489 16.23012104 -11.62344867 16.60316077 -14 17 C-9.68339698 10.99926777 -4.97966692 5.45993937 0 0 Z " fill="#1F6ED7" transform="translate(546,722)"/>
<path d="M0 0 C0.66 0.33 1.32 0.66 2 1 C1.52949219 2.11375 1.05898438 3.2275 0.57421875 4.375 C-1.23437258 9.19791022 -1.76003645 13.89396751 -2.1875 19 C-2.26935547 19.87011719 -2.35121094 20.74023438 -2.43554688 21.63671875 C-2.63358691 23.75691206 -2.81820556 25.87835199 -3 28 C-3.33 28 -3.66 28 -4 28 C-4.38289206 8.28105906 -4.38289206 8.28105906 -2 1 C-1.34 0.67 -0.68 0.34 0 0 Z " fill="#0A90ED" transform="translate(470,820)"/>
<path d="M0 0 C0.66 0.33 1.32 0.66 2 1 C-0.07258411 3.46757529 -2.15983812 5.92230468 -4.25 8.375 C-5.12978516 9.42300781 -5.12978516 9.42300781 -6.02734375 10.4921875 C-6.60097656 11.1625 -7.17460938 11.8328125 -7.765625 12.5234375 C-8.55114746 13.450354 -8.55114746 13.450354 -9.35253906 14.39599609 C-11.11320316 16.11021707 -12.75817059 17.02399442 -15 18 C-10.43492321 11.59099023 -5.33082532 5.7809839 0 0 Z " fill="#5654D6" transform="translate(669,575)"/>
<path d="M0 0 C-2.53481732 5.99138639 -7.40605731 10.53731282 -12 15 C-10.98103642 10.03255256 -5.83604771 0 0 0 Z " fill="#1484E9" transform="translate(505,774)"/>
<path d="M0 0 C0.66 0 1.32 0 2 0 C0.2703384 4.20953787 -2.68206745 7.35143576 -5.625 10.75 C-6.140625 11.35199219 -6.65625 11.95398438 -7.1875 12.57421875 C-8.45469135 14.05260866 -9.72685775 15.52673171 -11 17 C-11.66 16.34 -12.32 15.68 -13 15 C-11.38405168 12.95880212 -9.7143618 10.95927063 -8 9 C-7.34 9 -6.68 9 -6 9 C-6 8.34 -6 7.68 -6 7 C-5.34 6.67 -4.68 6.34 -4 6 C-2.86649466 3.98330173 -2.86649466 3.98330173 -2 2 C-1.34 2 -0.68 2 0 2 C0 1.34 0 0.68 0 0 Z " fill="#843CD6" transform="translate(907,503)"/>
<path d="M0 0 C0.66 0.33 1.32 0.66 2 1 C1.60167969 1.56847656 1.20335937 2.13695312 0.79296875 2.72265625 C-1.71772504 6.38179391 -4.0813743 9.84652441 -5.6875 14 C-6.120625 14.99 -6.55375 15.98 -7 17 C-7.99 17.33 -8.98 17.66 -10 18 C-8.28747108 11.49239011 -4.78309318 4.78309318 0 0 Z " fill="#0B86E3" transform="translate(479,803)"/>
<path d="M0 0 C0.66 0 1.32 0 2 0 C1.34 1.65 0.68 3.3 0 5 C-0.66 5 -1.32 5 -2 5 C-2.226875 5.556875 -2.45375 6.11375 -2.6875 6.6875 C-4.35896766 9.63246684 -6.55276352 11.68156544 -9 14 C-9.66 13.67 -10.32 13.34 -11 13 C-9.21526335 10.82727712 -7.42280648 8.66186229 -5.625 6.5 C-5.11710938 5.87996094 -4.60921875 5.25992188 -4.0859375 4.62109375 C-2.76792394 3.04294593 -1.38787368 1.51707513 0 0 Z " fill="#1A1F30" transform="translate(560,628)"/>
<path d="M0 0 C0.99 0 1.98 0 3 0 C1.59155282 3.21524305 -0.10344786 5.32183868 -2.625 7.75 C-3.57246094 8.67039062 -3.57246094 8.67039062 -4.5390625 9.609375 C-5.02117188 10.06828125 -5.50328125 10.5271875 -6 11 C-6.66 10.01 -7.32 9.02 -8 8 C-7.236875 7.4225 -6.47375 6.845 -5.6875 6.25 C-2.98734291 4.17663042 -2.98734291 4.17663042 -1.375 1.75 C-0.694375 0.88375 -0.694375 0.88375 0 0 Z " fill="#068DE3" transform="translate(886,876)"/>
<path d="M0 0 C0.66 0.33 1.32 0.66 2 1 C0.59601721 5.10110762 -1.37087038 7.98089159 -4.125 11.3125 C-4.84945312 12.19550781 -5.57390625 13.07851563 -6.3203125 13.98828125 C-7.15175781 14.98408203 -7.15175781 14.98408203 -8 16 C-8 11.75354935 -6.18249194 9.61475228 -4 6 C-3.34 6 -2.68 6 -2 6 C-1.855625 5.38125 -1.71125 4.7625 -1.5625 4.125 C-1 2 -1 2 0 0 Z " fill="#0794EC" transform="translate(901,856)"/>
<path d="M0 0 C0.66 0 1.32 0 2 0 C0.48446596 3.47775179 -1.5773456 5.9557984 -4.125 8.75 C-5.21167969 9.94882812 -5.21167969 9.94882812 -6.3203125 11.171875 C-6.87460937 11.77515625 -7.42890625 12.3784375 -8 13 C-8.33 12.01 -8.66 11.02 -9 10 C-8.401875 9.608125 -7.80375 9.21625 -7.1875 8.8125 C-4.73332338 6.77903937 -3.555933 4.75824486 -2 2 C-1.34 1.34 -0.68 0.68 0 0 Z " fill="#863BD0" transform="translate(918,490)"/>
<path d="M0 0 C0.66 0 1.32 0 2 0 C0.54718935 5.32697239 -3.08111378 8.36402802 -7 12 C-7.66 11.67 -8.32 11.34 -9 11 C-7.5489926 9.16086305 -6.08898341 7.3288247 -4.625 5.5 C-3.81289063 4.4790625 -3.00078125 3.458125 -2.1640625 2.40625 C-1.44992187 1.6121875 -0.73578125 0.818125 0 0 Z " fill="#151933" transform="translate(953,451)"/>
<path d="M0 0 C0.33 0.99 0.66 1.98 1 3 C-2.3 6.63 -5.6 10.26 -9 14 C-9.66 13.67 -10.32 13.34 -11 13 C-10.06027344 11.96939453 -10.06027344 11.96939453 -9.1015625 10.91796875 C-8.28429687 10.01691406 -7.46703125 9.11585938 -6.625 8.1875 C-5.81289063 7.29417969 -5.00078125 6.40085937 -4.1640625 5.48046875 C-1.90927093 3.00367326 -1.90927093 3.00367326 0 0 Z " fill="#0C1135" transform="translate(802,632)"/>
<path d="M0 0 C0.33 0.99 0.66 1.98 1 3 C-2.3 6.63 -5.6 10.26 -9 14 C-9.66 13.67 -10.32 13.34 -11 13 C-10.06027344 11.96939453 -10.06027344 11.96939453 -9.1015625 10.91796875 C-8.28429687 10.01691406 -7.46703125 9.11585938 -6.625 8.1875 C-5.81289063 7.29417969 -5.00078125 6.40085937 -4.1640625 5.48046875 C-1.90927093 3.00367326 -1.90927093 3.00367326 0 0 Z " fill="#101037" transform="translate(842,584)"/>
<path d="M0 0 C0.28617187 0.57492187 0.57234375 1.14984375 0.8671875 1.7421875 C1.59316658 3.1891389 2.3268655 4.63225808 3.0703125 6.0703125 C3.41835938 6.74835937 3.76640625 7.42640625 4.125 8.125 C4.47820312 8.80820312 4.83140625 9.49140625 5.1953125 10.1953125 C6 12 6 12 6 14 C3 13 3 13 1.3125 9.8125 C-0.01535157 6.4652075 -0.26451861 3.61508773 0 0 Z " fill="#0695EE" transform="translate(468,855)"/>
<path d="M0 0 C0.66 0.66 1.32 1.32 2 2 C0.02 4.31 -1.96 6.62 -4 9 C-4.99 8.67 -5.98 8.34 -7 8 C-4.69 5.36 -2.38 2.72 0 0 Z " fill="#286BD7" transform="translate(555,711)"/>
<path d="M0 0 C0.33 1.32 0.66 2.64 1 4 C-1.4375 6.75 -1.4375 6.75 -4 9 C-4.99 8.67 -5.98 8.34 -7 8 C-4.69 5.36 -2.38 2.72 0 0 Z " fill="#2A64D1" transform="translate(570,693)"/>
<path d="M0 0 C0.66 0.33 1.32 0.66 2 1 C-0.64 4.3 -3.28 7.6 -6 11 C-6.33 10.01 -6.66 9.02 -7 8 C-5.56640625 5.95703125 -5.56640625 5.95703125 -3.5625 3.8125 C-2.90378906 3.09707031 -2.24507812 2.38164062 -1.56640625 1.64453125 C-1.04949219 1.10183594 -0.53257812 0.55914062 0 0 Z " fill="#754BD9" transform="translate(758,468)"/>
<path d="M0 0 C0.99 0.33 1.98 0.66 3 1 C0.69 3.64 -1.62 6.28 -4 9 C-4.66 8.34 -5.32 7.68 -6 7 C-4.02 4.69 -2.04 2.38 0 0 Z " fill="#0A1330" transform="translate(747,698)"/>
<path d="M0 0 C3.3 0.33 6.6 0.66 10 1 C10 1.66 10 2.32 10 3 C6.7 2.67 3.4 2.34 0 2 C0 1.34 0 0.68 0 0 Z " fill="#078BDE" transform="translate(509,897)"/>
<path d="M0 0 C0.66 0.66 1.32 1.32 2 2 C0.38405168 4.04119788 -1.2856382 6.04072937 -3 8 C-3.66 8 -4.32 8 -5 8 C-3.8141763 4.62496331 -2.72426311 2.35277269 0 0 Z " fill="#2774E2" transform="translate(546,722)"/>
<path d="M0 0 C0.33 0.99 0.66 1.98 1 3 C-0.40445835 5.2636564 -2.1967913 7.0208685 -4 9 C-4.66 8.67 -5.32 8.34 -6 8 C-4.02 5.36 -2.04 2.72 0 0 Z " fill="#0F0E2E" transform="translate(941,465)"/>
<path d="M0 0 C0.33 0 0.66 0 1 0 C1 1.65 1 3.3 1 5 C1.66 5.33 2.32 5.66 3 6 C1.625 8.5 1.625 8.5 0 11 C-0.66 11 -1.32 11 -2 11 C-1.34 7.37 -0.68 3.74 0 0 Z " fill="#051D3D" transform="translate(946,793)"/>
<path d="M0 0 C0.66 0 1.32 0 2 0 C0.55746343 3.36591866 -1.33264727 5.51047079 -4 8 C-4.33 7.34 -4.66 6.68 -5 6 C-3.38405168 3.95880212 -1.7143618 1.95927063 0 0 Z " fill="#181F31" transform="translate(541,651)"/>
<path d="M0 0 C2.475 0.495 2.475 0.495 5 1 C5.33 2.98 5.66 4.96 6 7 C3.95880212 5.38405168 1.95927063 3.7143618 0 2 C0 1.34 0 0.68 0 0 Z " fill="#088CE2" transform="translate(480,879)"/>
<path d="M0 0 C0.66 0 1.32 0 2 0 C0.55746343 3.36591866 -1.33264727 5.51047079 -4 8 C-4.66 7.67 -5.32 7.34 -6 7 C-5.04882866 5.8274869 -4.08882991 4.66212985 -3.125 3.5 C-2.59132813 2.8503125 -2.05765625 2.200625 -1.5078125 1.53125 C-0.76144531 0.77328125 -0.76144531 0.77328125 0 0 Z " fill="#0E1238" transform="translate(817,614)"/>
<path d="M0 0 C1.625 1.6875 1.625 1.6875 3 4 C2.1875 6.75 2.1875 6.75 1 9 C0.01 8.67 -0.98 8.34 -2 8 C-1.67 7.67 -1.34 7.34 -1 7 C-0.63239269 4.67182036 -0.29758419 2.3381615 0 0 Z " fill="#5F39B8" transform="translate(760,459)"/>
<path d="M0 0 C0.66 0 1.32 0 2 0 C2 1.32 2 2.64 2 4 C1.34 4 0.68 4 0 4 C-0.33 5.32 -0.66 6.64 -1 8 C-1.66 8 -2.32 8 -3 8 C-1.125 2.25 -1.125 2.25 0 0 Z " fill="#222637" transform="translate(969,426)"/>
</svg>
