<svg width="1200" height="630" viewBox="0 0 1200 630" fill="none" xmlns="http://www.w3.org/2000/svg">
  <rect width="1200" height="630" fill="#0B1020" />
  <circle cx="1025" cy="115" r="180" fill="#1D4ED8" fill-opacity="0.25" />
  <circle cx="170" cy="530" r="220" fill="#06B6D4" fill-opacity="0.16" />
  <rect x="84" y="92" width="1032" height="446" rx="32" fill="#111827" stroke="#334155" />
  <text x="132" y="184" fill="#F8FAFC" font-family="Arial, Helvetica, sans-serif" font-size="64" font-weight="700">ThemeZip</text>
  <text x="132" y="250" fill="#CBD5E1" font-family="Arial, Helvetica, sans-serif" font-size="32">Turn screenshots into React theme starters</text>
  <rect x="132" y="316" width="278" height="156" rx="24" fill="#F8FAFC" />
  <rect x="438" y="316" width="278" height="156" rx="24" fill="#1E293B" />
  <rect x="744" y="316" width="278" height="156" rx="24" fill="#0F766E" />
  <rect x="172" y="356" width="198" height="20" rx="10" fill="#0F172A" />
  <rect x="172" y="392" width="148" height="16" rx="8" fill="#94A3B8" />
  <rect x="478" y="356" width="198" height="20" rx="10" fill="#E2E8F0" />
  <rect x="478" y="392" width="148" height="16" rx="8" fill="#64748B" />
  <rect x="784" y="356" width="198" height="20" rx="10" fill="#CCFBF1" />
  <rect x="784" y="392" width="148" height="16" rx="8" fill="#5EEAD4" />
</svg>